<svg id="visual" viewBox="0 0 960 540" width="960" height="540" xmlns="http://www.w3.org/2000/svg" xmlns:xlink="http://www.w3.org/1999/xlink" version="1.1"><rect x="0" y="0" width="960" height="540" fill="#232529"></rect><defs><linearGradient id="grad1_0" x1="43.8%" y1="100%" x2="100%" y2="0%"><stop offset="14.444444444444446%" stop-color="#fbae3c" stop-opacity="1"></stop><stop offset="85.55555555555554%" stop-color="#fbae3c" stop-opacity="1"></stop></linearGradient></defs><defs><linearGradient id="grad1_1" x1="43.8%" y1="100%" x2="100%" y2="0%"><stop offset="14.444444444444446%" stop-color="#fbae3c" stop-opacity="1"></stop><stop offset="85.55555555555554%" stop-color="#f38357" stop-opacity="1"></stop></linearGradient></defs><defs><linearGradient id="grad1_2" x1="43.8%" y1="100%" x2="100%" y2="0%"><stop offset="14.444444444444446%" stop-color="#d2646c" stop-opacity="1"></stop><stop offset="85.55555555555554%" stop-color="#f38357" stop-opacity="1"></stop></linearGradient></defs><defs><linearGradient id="grad1_3" x1="43.8%" y1="100%" x2="100%" y2="0%"><stop offset="14.444444444444446%" stop-color="#d2646c" stop-opacity="1"></stop><stop offset="85.55555555555554%" stop-color="#a05474" stop-opacity="1"></stop></linearGradient></defs><defs><linearGradient id="grad1_4" x1="43.8%" y1="100%" x2="100%" y2="0%"><stop offset="14.444444444444446%" stop-color="#6a4869" stop-opacity="1"></stop><stop offset="85.55555555555554%" stop-color="#a05474" stop-opacity="1"></stop></linearGradient></defs><defs><linearGradient id="grad1_5" x1="43.8%" y1="100%" x2="100%" y2="0%"><stop offset="14.444444444444446%" stop-color="#6a4869" stop-opacity="1"></stop><stop offset="85.55555555555554%" stop-color="#3d394e" stop-opacity="1"></stop></linearGradient></defs><defs><linearGradient id="grad1_6" x1="43.8%" y1="100%" x2="100%" y2="0%"><stop offset="14.444444444444446%" stop-color="#232529" stop-opacity="1"></stop><stop offset="85.55555555555554%" stop-color="#3d394e" stop-opacity="1"></stop></linearGradient></defs><defs><linearGradient id="grad2_0" x1="0%" y1="100%" x2="56.3%" y2="0%"><stop offset="14.444444444444446%" stop-color="#fbae3c" stop-opacity="1"></stop><stop offset="85.55555555555554%" stop-color="#fbae3c" stop-opacity="1"></stop></linearGradient></defs><defs><linearGradient id="grad2_1" x1="0%" y1="100%" x2="56.3%" y2="0%"><stop offset="14.444444444444446%" stop-color="#f38357" stop-opacity="1"></stop><stop offset="85.55555555555554%" stop-color="#fbae3c" stop-opacity="1"></stop></linearGradient></defs><defs><linearGradient id="grad2_2" x1="0%" y1="100%" x2="56.3%" y2="0%"><stop offset="14.444444444444446%" stop-color="#f38357" stop-opacity="1"></stop><stop offset="85.55555555555554%" stop-color="#d2646c" stop-opacity="1"></stop></linearGradient></defs><defs><linearGradient id="grad2_3" x1="0%" y1="100%" x2="56.3%" y2="0%"><stop offset="14.444444444444446%" stop-color="#a05474" stop-opacity="1"></stop><stop offset="85.55555555555554%" stop-color="#d2646c" stop-opacity="1"></stop></linearGradient></defs><defs><linearGradient id="grad2_4" x1="0%" y1="100%" x2="56.3%" y2="0%"><stop offset="14.444444444444446%" stop-color="#a05474" stop-opacity="1"></stop><stop offset="85.55555555555554%" stop-color="#6a4869" stop-opacity="1"></stop></linearGradient></defs><defs><linearGradient id="grad2_5" x1="0%" y1="100%" x2="56.3%" y2="0%"><stop offset="14.444444444444446%" stop-color="#3d394e" stop-opacity="1"></stop><stop offset="85.55555555555554%" stop-color="#6a4869" stop-opacity="1"></stop></linearGradient></defs><defs><linearGradient id="grad2_6" x1="0%" y1="100%" x2="56.3%" y2="0%"><stop offset="14.444444444444446%" stop-color="#3d394e" stop-opacity="1"></stop><stop offset="85.55555555555554%" stop-color="#232529" stop-opacity="1"></stop></linearGradient></defs><g transform="translate(960, 540)"><path d="M-324 0C-298.7 -32.7 -273.4 -65.4 -262.4 -108.7C-251.4 -152 -254.7 -205.8 -229.1 -229.1C-203.5 -252.4 -149 -245.2 -106 -255.9C-63 -266.6 -31.5 -295.3 0 -324L0 0Z" fill="#2d2f3c"></path><path d="M-277.7 0C-256 -28 -234.3 -56.1 -224.9 -93.2C-215.5 -130.2 -218.3 -176.4 -196.4 -196.4C-174.4 -216.4 -127.7 -210.2 -90.9 -219.4C-54 -228.6 -27 -253.1 0 -277.7L0 0Z" fill="#51415d"></path><path d="M-231.4 0C-213.3 -23.4 -195.3 -46.7 -187.4 -77.6C-179.6 -108.5 -181.9 -147 -163.6 -163.6C-145.4 -180.3 -106.4 -175.1 -75.7 -182.8C-45 -190.5 -22.5 -210.9 0 -231.4L0 0Z" fill="#854e71"></path><path d="M-185.1 0C-170.7 -18.7 -156.2 -37.4 -149.9 -62.1C-143.6 -86.8 -145.5 -117.6 -130.9 -130.9C-116.3 -144.2 -85.1 -140.1 -60.6 -146.2C-36 -152.4 -18 -168.8 0 -185.1L0 0Z" fill="#bb5b72"></path><path d="M-138.9 0C-128 -14 -117.2 -28 -112.4 -46.6C-107.7 -65.1 -109.2 -88.2 -98.2 -98.2C-87.2 -108.2 -63.9 -105.1 -45.4 -109.7C-27 -114.3 -13.5 -126.6 0 -138.9L0 0Z" fill="#e57263"></path><path d="M-92.6 0C-85.3 -9.3 -78.1 -18.7 -75 -31.1C-71.8 -43.4 -72.8 -58.8 -65.5 -65.5C-58.1 -72.1 -42.6 -70.1 -30.3 -73.1C-18 -76.2 -9 -84.4 0 -92.6L0 0Z" fill="#fa9749"></path><path d="M-46.3 0C-42.7 -4.7 -39.1 -9.3 -37.5 -15.5C-35.9 -21.7 -36.4 -29.4 -32.7 -32.7C-29.1 -36.1 -21.3 -35 -15.1 -36.6C-9 -38.1 -4.5 -42.2 0 -46.3L0 0Z" fill="#fbae3c"></path></g><g transform="translate(0, 0)"><path d="M324 0C297.6 33.1 271.2 66.2 259.6 107.5C248 148.9 251.1 198.6 229.1 229.1C207.1 259.6 159.9 271 117.5 283.6C75.1 296.3 37.6 310.1 0 324L0 0Z" fill="#2d2f3c"></path><path d="M277.7 0C255.1 28.4 232.5 56.7 222.5 92.2C212.6 127.6 215.3 170.2 196.4 196.4C177.5 222.5 137 232.3 100.7 243.1C64.4 253.9 32.2 265.8 0 277.7L0 0Z" fill="#51415d"></path><path d="M231.4 0C212.6 23.6 193.7 47.3 185.4 76.8C177.1 106.4 179.4 141.8 163.6 163.6C147.9 185.4 114.2 193.6 83.9 202.6C53.6 211.6 26.8 221.5 0 231.4L0 0Z" fill="#854e71"></path><path d="M185.1 0C170.1 18.9 155 37.8 148.3 61.4C141.7 85.1 143.5 113.5 130.9 130.9C118.3 148.4 91.4 154.9 67.1 162.1C42.9 169.3 21.5 177.2 0 185.1L0 0Z" fill="#bb5b72"></path><path d="M138.9 0C127.5 14.2 116.2 28.4 111.3 46.1C106.3 63.8 107.6 85.1 98.2 98.2C88.7 111.3 68.5 116.1 50.4 121.6C32.2 127 16.1 132.9 0 138.9L0 0Z" fill="#e57263"></path><path d="M92.6 0C85 9.5 77.5 18.9 74.2 30.7C70.9 42.5 71.8 56.7 65.5 65.5C59.2 74.2 45.7 77.4 33.6 81C21.5 84.6 10.7 88.6 0 92.6L0 0Z" fill="#fa9749"></path><path d="M46.3 0C42.5 4.7 38.7 9.5 37.1 15.4C35.4 21.3 35.9 28.4 32.7 32.7C29.6 37.1 22.8 38.7 16.8 40.5C10.7 42.3 5.4 44.3 0 46.3L0 0Z" fill="#fbae3c"></path></g></svg>