<svg id="visual" viewBox="0 0 900 600" width="900" height="600" xmlns="http://www.w3.org/2000/svg" xmlns:xlink="http://www.w3.org/1999/xlink" version="1.1"><g transform="translate(429.2748981366283 328.0523655495904)"><path d="M173.1 -203.1C222.3 -165 258.9 -108.5 268.2 -48.4C277.5 11.8 259.6 75.6 223.8 121.3C188 166.9 134.4 194.3 83.4 200.5C32.4 206.6 -15.8 191.4 -72 179.1C-128.2 166.8 -192.3 157.4 -216.5 121.9C-240.8 86.3 -225.3 24.7 -210.5 -33.3C-195.8 -91.3 -181.8 -145.6 -146.8 -186.3C-111.8 -227 -55.9 -254 3 -257.6C61.9 -261.1 123.8 -241.3 173.1 -203.1" fill="#2f3136"></path></g></svg>