<svg id="visual" viewBox="0 0 900 600" width="900" height="600" xmlns="http://www.w3.org/2000/svg" xmlns:xlink="http://www.w3.org/1999/xlink" version="1.1"><g transform="translate(466.3960750880583 321.5730880382954)"><path d="M113.1 -151.3C143.8 -108.9 164.2 -70.7 185.7 -22C207.1 26.8 229.6 86.1 212.2 128.4C194.8 170.6 137.6 195.7 84 203.4C30.3 211.1 -19.7 201.4 -60.4 180.4C-101.1 159.3 -132.4 126.9 -170 86.3C-207.6 45.6 -251.5 -3.2 -251.2 -51.2C-251 -99.1 -206.5 -146.1 -157.2 -185.2C-108 -224.4 -54 -255.7 -6.4 -248C41.1 -240.4 82.3 -193.7 113.1 -151.3" fill="#202225"></path></g></svg>