<svg id="visual" viewBox="0 0 900 600" width="900" height="600" xmlns="http://www.w3.org/2000/svg" xmlns:xlink="http://www.w3.org/1999/xlink" version="1.1"><g transform="translate(462.65542412523763 320.32192603603306)"><path d="M127.9 -150C168.7 -118.1 207 -80.7 214.8 -37.7C222.7 5.3 200.1 53.9 170.1 90.9C140 127.8 102.5 153.2 60.7 169.8C18.8 186.4 -27.4 194.2 -65.3 180.1C-103.2 165.9 -132.8 129.8 -166 88.2C-199.2 46.5 -236 -0.8 -241.1 -54.7C-246.1 -108.7 -219.5 -169.2 -174 -200.4C-128.6 -231.5 -64.3 -233.3 -10.4 -220.9C43.5 -208.5 87 -182 127.9 -150" fill="#2f3136"></path></g></svg>