<svg id="visual" viewBox="0 0 960 540" width="960" height="540" xmlns="http://www.w3.org/2000/svg" xmlns:xlink="http://www.w3.org/1999/xlink" version="1.1"><path d="M0 190L17.8 171.2C35.7 152.3 71.3 114.7 106.8 107.5C142.3 100.3 177.7 123.7 213.2 145.2C248.7 166.7 284.3 186.3 320 179.2C355.7 172 391.3 138 426.8 145.2C462.3 152.3 497.7 200.7 533.2 213.2C568.7 225.7 604.3 202.3 640 175.3C675.7 148.3 711.3 117.7 746.8 103.3C782.3 89 817.7 91 853.2 101.8C888.7 112.7 924.3 132.3 942.2 142.2L960 152L960 0L942.2 0C924.3 0 888.7 0 853.2 0C817.7 0 782.3 0 746.8 0C711.3 0 675.7 0 640 0C604.3 0 568.7 0 533.2 0C497.7 0 462.3 0 426.8 0C391.3 0 355.7 0 320 0C284.3 0 248.7 0 213.2 0C177.7 0 142.3 0 106.8 0C71.3 0 35.7 0 17.8 0L0 0Z" fill="#242529"></path><path d="M0 293L17.8 262.3C35.7 231.7 71.3 170.3 106.8 163C142.3 155.7 177.7 202.3 213.2 233C248.7 263.7 284.3 278.3 320 263.2C355.7 248 391.3 203 426.8 208.3C462.3 213.7 497.7 269.3 533.2 281C568.7 292.7 604.3 260.3 640 230.7C675.7 201 711.3 174 746.8 161.3C782.3 148.7 817.7 150.3 853.2 155.7C888.7 161 924.3 170 942.2 174.5L960 179L960 150L942.2 140.2C924.3 130.3 888.7 110.7 853.2 99.8C817.7 89 782.3 87 746.8 101.3C711.3 115.7 675.7 146.3 640 173.3C604.3 200.3 568.7 223.7 533.2 211.2C497.7 198.7 462.3 150.3 426.8 143.2C391.3 136 355.7 170 320 177.2C284.3 184.3 248.7 164.7 213.2 143.2C177.7 121.7 142.3 98.3 106.8 105.5C71.3 112.7 35.7 150.3 17.8 169.2L0 188Z" fill="#37393f"></path><path d="M0 374L17.8 344.2C35.7 314.3 71.3 254.7 106.8 246.5C142.3 238.3 177.7 281.7 213.2 315C248.7 348.3 284.3 371.7 320 356.3C355.7 341 391.3 287 426.8 284.3C462.3 281.7 497.7 330.3 533.2 349.3C568.7 368.3 604.3 357.7 640 328.8C675.7 300 711.3 253 746.8 225C782.3 197 817.7 188 853.2 202.5C888.7 217 924.3 255 942.2 274L960 293L960 177L942.2 172.5C924.3 168 888.7 159 853.2 153.7C817.7 148.3 782.3 146.7 746.8 159.3C711.3 172 675.7 199 640 228.7C604.3 258.3 568.7 290.7 533.2 279C497.7 267.3 462.3 211.7 426.8 206.3C391.3 201 355.7 246 320 261.2C284.3 276.3 248.7 261.7 213.2 231C177.7 200.3 142.3 153.7 106.8 161C71.3 168.3 35.7 229.7 17.8 260.3L0 291Z" fill="#52545a"></path><path d="M0 438L17.8 422.8C35.7 407.7 71.3 377.3 106.8 368.3C142.3 359.3 177.7 371.7 213.2 395C248.7 418.3 284.3 452.7 320 444.7C355.7 436.7 391.3 386.3 426.8 379.2C462.3 372 497.7 408 533.2 429.5C568.7 451 604.3 458 640 434.5C675.7 411 711.3 357 746.8 322.8C782.3 288.7 817.7 274.3 853.2 293.3C888.7 312.3 924.3 364.7 942.2 390.8L960 417L960 291L942.2 272C924.3 253 888.7 215 853.2 200.5C817.7 186 782.3 195 746.8 223C711.3 251 675.7 298 640 326.8C604.3 355.7 568.7 366.3 533.2 347.3C497.7 328.3 462.3 279.7 426.8 282.3C391.3 285 355.7 339 320 354.3C284.3 369.7 248.7 346.3 213.2 313C177.7 279.7 142.3 236.3 106.8 244.5C71.3 252.7 35.7 312.3 17.8 342.2L0 372Z" fill="#37393f"></path><path d="M0 541L17.8 541C35.7 541 71.3 541 106.8 541C142.3 541 177.7 541 213.2 541C248.7 541 284.3 541 320 541C355.7 541 391.3 541 426.8 541C462.3 541 497.7 541 533.2 541C568.7 541 604.3 541 640 541C675.7 541 711.3 541 746.8 541C782.3 541 817.7 541 853.2 541C888.7 541 924.3 541 942.2 541L960 541L960 415L942.2 388.8C924.3 362.7 888.7 310.3 853.2 291.3C817.7 272.3 782.3 286.7 746.8 320.8C711.3 355 675.7 409 640 432.5C604.3 456 568.7 449 533.2 427.5C497.7 406 462.3 370 426.8 377.2C391.3 384.3 355.7 434.7 320 442.7C284.3 450.7 248.7 416.3 213.2 393C177.7 369.7 142.3 357.3 106.8 366.3C71.3 375.3 35.7 405.7 17.8 420.8L0 436Z" fill="#242529"></path></svg>